# xmcd
#
# Track frame offsets:
#	150
#	25985
#	53135
#	109187
#	132960
#	150589
#	174049
#	207288
#	242375
#	262547
#	285172
#
# Disc length: 4096 seconds
#
# Revision: 1
# Processed by: cddbd v1.5.2PL0 Copyright (c) Steve Scherf et al.
# Submitted via: audiograbber 1.83.01
#
DISCID=7e0ffe0b
DTITLE=Funkronomicon - Axiom Funk
DYEAR=1997
DGENRE=Funk
TTITLE0=Under the influence
TTITLE1=If 6 was 9
TTITLE2=Orbitron attack
TTITLE3=Cosmic slop
TTITLE4=Tell the world
TTITLE5=Pray my soul
TTITLE6=Hideous mutant freaks
TTITLE7=Sax machine
TTITLE8=Animal behaviour
TTITLE9=Telling time
TTITLE10=Sacred to the pain
EXTD=
EXTT0=
EXTT1=
EXTT2=
EXTT3=
EXTT4=
EXTT5=
EXTT6=
EXTT7=
EXTT8=
EXTT9=
EXTT10=
PLAYORDER=
